<svg xmlns="http://www.w3.org/2000/svg" viewBox="0 0 2048 2048" xmlns:v="https://vecta.io/nano"><defs><filter id="S" x="0" y="0"><feGaussianBlur in="SourceGraphic" stdDeviation="50"/></filter><linearGradient x1="17%" y1="81%" x2="87%" y2="21.5%" id="A"><stop stop-color="hsl(314,41%,49%)" offset="0%"/><stop stop-color="hsl(61,82%,65%)" offset="100%"/></linearGradient><linearGradient x1="50%" y1="92.0%" x2="61.2%" y2="79.9%" id="B"><stop stop-color="hsl(314,41%,49%)" offset="0%"/><stop stop-color="hsl(61,82%,65%)" offset="100%"/></linearGradient><linearGradient x1="36.3%" y1="44.3%" x2="59.0%" y2="25.9%" id="E"><stop stop-color="hsl(314,41%,49%)" offset="0%"/><stop stop-color="hsl(61,82%,65%)" offset="100%"/></linearGradient><linearGradient x1="-17.9%" y1="79.6%" x2="57.4%" y2="11.3%" id="F"><stop stop-color="hsl(314,41%,49%)" offset="0%"/><stop stop-color="hsl(61,82%,65%)" offset="100%"/></linearGradient><linearGradient x1="43.7%" y1="57.6%" x2="75.1%" y2="8.1%" id="H"><stop stop-color="hsl(314,41%,49%)" offset="0%"/><stop stop-color="hsl(61,82%,65%)" offset="100%"/></linearGradient><linearGradient x1="100%" y1="42.2%" x2="50%" y2="58.4%" id="I"><stop stop-color="hsl(314,41%,49%)" offset="0%"/><stop stop-color="hsl(61,82%,65%)" offset="100%"/></linearGradient></defs><g fill="none" fill-rule="evenodd"><path fill="hsl(326,40%,18%)" d="M0 0h2048v2048H0z"/><polygon filter="url(#S)" fill="rgba(0,0,0,.3)" points="271 562 783 1247 1005 999 1930 643 1637 1256 1871 1510 1607 1355 1149 1775 1047 1641 55 1434 576 1195"></polygon><g><animateTransform attributeName="transform" type="translate" values="82 186;82 140;82 186" dur="4s" repeatCount="indefinite" /><path fill="url(#A)" d="M833 785l115-264 936-425-335 796-317 189z"/><path fill="url(#B)" d="M572 851L219 0l576 932z"/><path fill="hsl(314,41%,49%)" d="M994 706l238 330-144 88z"/><path fill="hsl(314,41%,49%)" d="M1165 1398l405-466.286L1521.949 870z"/><path d="M1550 834c20.633-11.828 63.814.701 88 30 16.124 19.533 72.457 108.199 169 266l-285-269c4.911-10.115 14.245-19.115 28-27z" fill="url(#E)"/><path d="M1063 1109l400-264c19-13 52-25 84-7 21.333 12 108 109.333 260 292l-279-216-363 484-68 41-34-330z" fill="url(#F)"/><path fill="hsl(314,41%,49%)" d="M1097 1439l47-206-150 33z"/><path fill="url(#H)" d="M651 857l343-151 150 527z"/><path fill="url(#I)" d="M0 1035l498-267 213 62 433 403-113 52z"/></g><path fill="hsl(61,82%,65%)" d="M0 1968h80v80H0z"/><path fill="hsl(314,41%,49%)" d="M80 1968h80v80H80z"/></g><text font-family="ui-monospace, SFMono-Regular, Menlo, Monaco, monospace" font-size="50" font-weight="bold" fill="rgba(255,255,255,.9)" x="180" y="2023">2021-82</text></svg>