<svg viewBox="0 0 2048 2048" xmlns="http://www.w3.org/2000/svg" xmlns:xlink="http://www.w3.org/1999/xlink"><defs><radialGradient cx="29%" cy="89%" fx="21%" fy="82%" r="120%" gradientTransform="scale(.9372 1) rotate(-45.1 .2 .8)" id="c"><animate attributeName="r" values="180%;80%;180%" dur="4s" repeatCount="indefinite"/><stop stop-color="#955DFF" offset="0%"/><stop stop-color="#F466CE" offset="25%"/><stop stop-color="#FCF295" offset="50%"/><stop stop-color="#15FDBA" offset="75%"/><stop stop-color="#955DFF" offset="100%"/></radialGradient><radialGradient cx="46.2%" cy="92.9%" fx="46.2%" fy="92.9%" r="159.3%" gradientTransform="matrix(.54378 -.51866 .83922 .33607 -.6 .9)" id="d"><animate attributeName="r" values="169%;105%;169%" dur="4s" repeatCount="indefinite"/><stop stop-color="#955DFF" offset="0%"/><stop stop-color="#F466CE" offset="28.3%"/><stop stop-color="#FCF295" offset="65.7%"/><stop stop-color="#15FDBA" offset="100%"/></radialGradient><radialGradient cx="0%" cy="60.5%" fx="0%" fy="60.5%" r="122.7%" gradientTransform="matrix(.78933 -.2712 .2224 .96252 -.1 0)" id="e"><animate attributeName="r" values="142%;85%;142%" dur="4s" repeatCount="indefinite"/><stop stop-color="#955DFF" offset="0%"/><stop stop-color="#F466CE" offset="28.3%"/><stop stop-color="#FCF295" offset="65.7%"/><stop stop-color="#15FDBA" offset="100%"/></radialGradient><radialGradient cx="13.4%" cy="82.6%" fx="13.4%" fy="82.6%" r="123.7%" gradientTransform="matrix(.70022 -.66787 .71393 .65504 -.5 .4)" id="f"><animate attributeName="r" values="143%;85%;143%" dur="4s" repeatCount="indefinite"/><animate attributeName="cx" values="13%;18%;13%" dur="4s" repeatCount="indefinite"/><stop stop-color="#955DFF" offset="0%"/><stop stop-color="#F466CE" offset="28.3%"/><stop stop-color="#FCF295" offset="65.7%"/><stop stop-color="#15FDBA" offset="100%"/></radialGradient><radialGradient cx="87.7%" cy="32.7%" fx="87.7%" fy="32.7%" r="194.7%" gradientTransform="matrix(-.45063 .0756 -.03417 -.99714 1.3 .6)" id="g"><animate attributeName="r" values="224%;155%;224%" dur="4s" repeatCount="indefinite"/><stop stop-color="#955DFF" offset="0%"/><stop stop-color="#F466CE" offset="25%"/><stop stop-color="#FCF295" offset="50%"/><stop stop-color="#15FDBA" offset="75%"/><stop stop-color="#955DFF" offset="100%"/></radialGradient><linearGradient x1="0%" y1="62.5%" x2="100%" y2="37.5%" id="h"><stop stop-color="#955DFF" offset="0%"/><stop stop-color="#F466CE" offset="33.3%"/><stop stop-color="#FCF295" offset="66.6%"/><stop stop-color="#15FDBA" offset="100%"/></linearGradient><filter x="-5.1%" y="-7.9%" width="110.2%" height="115.8%" filterUnits="objectBoundingBox" id="a"><feOffset in="SourceAlpha" result="shadowOffsetOuter1"/><feGaussianBlur stdDeviation="32" in="shadowOffsetOuter1" result="shadowBlurOuter1"/><feColorMatrix values="0 0 0 0 0 0 0 0 0 0 0 0 0 0 0 0 0 0 0.5 0" in="shadowBlurOuter1"/></filter><path id="b" d="m271 562 512 685 222-248 925-356-293 613 234 254-264-155-458 420-102-134-992-207 521-239z"/></defs><path fill="#5E5E5E" d="M0 0h2048v2048H0z"/><use filter="url(#a)" xlink:href="#b" fill="rgba(0,0,0,.3)"/><g transform="translate(82 186)"><animateTransform xmlns="http://www.w3.org/2000/svg" attributeName="transform" type="translate" values="82 186;82 140;82 186" dur="4s" repeatCount="indefinite"/><path fill="url(#c)" d="m833 785 115-264 936-425-335 796-317 189z"/><path fill="url(#d)" d="M572 851 219 0l576 932z"/><path fill="#9C4BF7" d="m994 706 238 330-144 88z"/><path fill="#DC64DB" d="m1165 1398 405-466.3-48.1-61.7z"/><path d="M1550 834c20.6-11.8 63.8.7 88 30 16.1 19.5 72.5 108.2 169 266l-285-269a66 66 0 0 1 28-27Z" fill="#F687C1"/><path d="M1063 1109a110952 110952 0 0 0 400-264c19-13 52-25 84-7 21.3 12 108 109.3 260 292l-279-216-363 484-68 41-34-330Z" fill="url(#e)"/><path fill="#9C4BF7" d="m1097 1439 47-206-150 33z"/><path fill="url(#f)" d="m651 857 343-151 150 527z"/><path fill="url(#g)" d="m0 1035 498-267 213 62 433 403-113 52z"/></g><path fill="url(#h)" d="M0 1968h160v80H0z"/><text xmlns="http://www.w3.org/2000/svg" font-family="ui-monospace, SFMono-Regular, Menlo, Monaco, monospace" font-size="50" font-weight="bold" fill="rgba(255,255,255,.9)" x="180" y="2023">2021</text></svg>