<?xml version="1.0" encoding="UTF-8"?>
<svg width="314px" height="314px" viewBox="0 0 314 314" version="1.1" xmlns="http://www.w3.org/2000/svg" xmlns:xlink="http://www.w3.org/1999/xlink">
    <title>exports/1</title>
    <defs>
        <linearGradient x1="12.6856859%" y1="43.9676218%" x2="66.3801705%" y2="82.7281072%" id="linearGradient-1">
            <stop stop-color="#675EFF" offset="0%"></stop>
            <stop stop-color="#70DCFF" offset="100%"></stop>
        </linearGradient>
        <linearGradient x1="53.5051585%" y1="84.307392%" x2="63.2373828%" y2="71.1740099%" id="linearGradient-2">
            <stop stop-color="#675EFF" offset="0%"></stop>
            <stop stop-color="#70DCFF" offset="100%"></stop>
        </linearGradient>
        <linearGradient x1="45.2735129%" y1="50%" x2="60.2441848%" y2="86.8077145%" id="linearGradient-3">
            <stop stop-color="#675EFF" offset="0%"></stop>
            <stop stop-color="#70DCFF" offset="100%"></stop>
        </linearGradient>
        <linearGradient x1="76.451937%" y1="19.3034802%" x2="24.94031%" y2="100%" id="linearGradient-4">
            <stop stop-color="#675EFF" offset="0%"></stop>
            <stop stop-color="#70DCFF" offset="100%"></stop>
        </linearGradient>
        <linearGradient x1="36.2265375%" y1="44.3249297%" x2="59.1553163%" y2="25.9504214%" id="linearGradient-5">
            <stop stop-color="#675EFF" offset="0%"></stop>
            <stop stop-color="#70DCFF" offset="100%"></stop>
        </linearGradient>
        <linearGradient x1="8.86339311%" y1="68.8983849%" x2="57.4170696%" y2="12.380581%" id="linearGradient-6">
            <stop stop-color="#675EFF" offset="0%"></stop>
            <stop stop-color="#70DCFF" offset="100%"></stop>
        </linearGradient>
        <linearGradient x1="61.903628%" y1="12.1275491%" x2="41.3467987%" y2="106.348829%" id="linearGradient-7">
            <stop stop-color="#675EFF" offset="0%"></stop>
            <stop stop-color="#70DCFF" offset="100%"></stop>
        </linearGradient>
        <linearGradient x1="60.2436296%" y1="69.5755436%" x2="75.8243655%" y2="8.18503928%" id="linearGradient-8">
            <stop stop-color="#675EFF" offset="0%"></stop>
            <stop stop-color="#70DCFF" offset="100%"></stop>
        </linearGradient>
        <linearGradient x1="43.9119818%" y1="39.9153788%" x2="88.0205619%" y2="59.5886267%" id="linearGradient-9">
            <stop stop-color="#675EFF" offset="0%"></stop>
            <stop stop-color="#70DCFF" offset="100%"></stop>
        </linearGradient>
    </defs>
    <g id="exports/1" stroke="none" stroke-width="1" fill="none" fill-rule="evenodd">
        <rect fill="#FF5B5B" x="0" y="0" width="314" height="314"></rect>
        <g id="Group-Copy" transform="translate(19.000000, 40.000000)">
            <polygon id="Path-5" fill="url(#linearGradient-1)" points="123 114.451919 139.522383 75.9612711 276 14 227.048217 130.30109 180.944542 158"></polygon>
            <polygon id="Path-3" fill="url(#linearGradient-2)" points="84.4553249 124.353551 33 0 117 136"></polygon>
            <polygon id="Path" fill="url(#linearGradient-3)" points="146 105 166.381519 132.003029 181 151.370735 160.396166 166"></polygon>
            <polygon id="Path-7" fill="url(#linearGradient-4)" points="161 209 171 203 230 136 223 127"></polygon>
            <path d="M226.990988,121.720765 C230.249153,120.163794 237.479818,120.966332 240.472859,125.737455 L265,165 L223,125.737455 L226.990988,121.720765 Z" id="Path-6" fill="url(#linearGradient-5)"></path>
            <path d="M156,161.704881 L214.491054,123.471246 C219.939487,120.368434 222.819259,120.368434 226.592651,122.465097 C229.108246,123.862873 242.244029,138.09776 266,165.169759 L227.601118,137.557322 L223.567252,133.532729 L171.126997,203.96311 L161.042332,210 L156,161.704881 Z" id="Path-4" fill="url(#linearGradient-6)"></path>
            <polygon id="Path-2" fill="url(#linearGradient-7)" points="161 210 168 180 151 186 145 185"></polygon>
            <polygon id="Path-8" fill="url(#linearGradient-8)" points="95 124.741176 146.051637 103 168 180"></polygon>
            <polygon id="Path-9" fill="url(#linearGradient-9)" points="1 150.561096 74.1257424 112 105.255697 120.860771 168 180.090046 151.15295 187"></polygon>
        </g>
    </g>
</svg>